<svg height="512pt" viewBox="-63 0 512 512" width="512pt" xmlns="http://www.w3.org/2000/svg"><path d="m337.769531 274.625 35.859375-67.074219c9.925782-18.570312-2.582031-41.207031-23.59375-42.679687l-49.882812-3.496094 29.082031-50.929688c10.070313-17.636718-3.476563-39.40625-23.75-38.160156l-46.648437 2.378906-37.027344-60.410156c-14.136719-19.003906-42.59375-19.003906-56.730469 0l-37.027344 60.410156-46.648437-2.378906c-20.273438-1.246094-33.820313 20.523438-23.75 38.160156l29.082031 50.929688-49.882813 3.496094c-21.007812 1.472656-33.519531 24.109375-23.589843 42.679687l35.855469 67.074219-23.03125 5.308594c-20.015626 4.613281-31.160157 25.878906-23.816407 45.0625 40.898438 106.867187 160.628907 120.644531 191.171875 120.644531 30.542969 0 150.273438-13.777344 191.171875-120.644531 7.34375-19.183594-3.800781-40.449219-23.816406-45.0625zm0 0" fill="#a5cc83"/><path d="m303.167969 416.617188c-26.3125-25.070313-62.367188-53.058594-109.722657-77.171876-93.632812-47.675781-127.105468-138.203124-137.332031-175.921874l-19.257812 1.351562c-21.007813 1.46875-33.519531 24.105469-23.59375 42.679688l35.859375 67.070312-23.03125 5.308594c-20.015625 4.613281-31.160156 25.878906-23.816406 45.0625 40.898437 106.867187 160.628906 120.648437 191.171874 120.648437 17.628907-.003906 64.976563-4.59375 109.722657-29.027343zm0 0" fill="#92b76e"/><path d="m301.472656 297.6875c-8.339844-12.132812-25.089844-15.238281-37.222656-6.898438l-70.804688 48.65625-70.804687-48.65625c-12.132813-8.339843-28.882813-5.234374-37.222656 6.898438-8.339844 12.132812-5.234375 28.886719 6.898437 37.222656l101.128906 69.5 101.128907-69.5c12.132812-8.335937 15.238281-25.085937 6.898437-37.222656zm0 0" fill="#c68d6d"/><path d="m193.445312 339.445312-65.820312-45.230468c-3.453125 15.292968-8.46875 37.683594-12.628906 56.285156l78.449218 53.910156 78.449219-53.910156c-4.164062-18.601562-9.179687-40.992188-12.628906-56.285156zm0 0" fill="#b2785b"/><path d="m274.703125 197.78125c-8.339844-12.132812-25.089844-15.238281-37.226563-6.898438l-44.03125 30.261719-44.035156-30.261719c-12.132812-8.339843-28.882812-5.234374-37.222656 6.898438-8.339844 12.136719-5.234375 28.886719 6.898438 37.226562l74.359374 51.097657 74.355469-51.097657c12.136719-8.339843 15.242188-25.09375 6.902344-37.226562zm0 0" fill="#c68d6d"/><path d="m237.480469 190.882812-44.035157 30.261719-44.035156-30.261719c-.269531-.1875-11.953125 56.75-11.953125 56.75l55.988281 38.472657 55.984376-38.472657s-11.683594-56.9375-11.949219-56.75zm0 0" fill="#b2785b"/><path d="m193.445312 512c-14.722656 0-26.769531-12.046875-26.769531-26.769531v-335.113281c0-14.722657 12.046875-26.769532 26.769531-26.769532 14.722657 0 26.769532 12.046875 26.769532 26.769532v335.113281c0 14.722656-12.046875 26.769531-26.769532 26.769531zm0 0" fill="#dd9f80"/></svg>